<svg version="1.2" xmlns="http://www.w3.org/2000/svg" viewBox="0 0 174 219" width="174" height="219">
    <title>Bug Catcher-ai</title>
    <style>
        .s16 {
            fill: #51d188
        }

        .s17 {
            fill: #23a761
        }
    </style>
    <g id="_Artboards_">
    </g>
    <g id="Layer 1">
        <g id="&lt;Group&gt;">
            <g id="&lt;Group&gt;">
                <g id="&lt;Group&gt;">
                    <path id="&lt;Path&gt;" class="s17"
                          d="m66 17.2c0 5.6-4.5 10.1-10.1 10.1-5.5 0-10.1-4.5-10.1-10.1 0-5.5 4.6-10.1 10.1-10.1 5.6 0 10.1 4.6 10.1 10.1z"/>
                </g>
                <g id="&lt;Group&gt;">
                    <g id="&lt;Group&gt;">
                        <g id="&lt;Group&gt;">
                            <g id="&lt;Group&gt;">
                                <path id="&lt;Compound Path&gt;" class="s16"
                                      d="m87 185c-2 0-3.7-1-4.9-2-19.1-16.3-31.4-30.7-39.8-46.9-4.2-8.1-6.5-16.9-6.5-24.7h3.7-3.7c0.2-23.4 18-43.3 42.5-47.4 15.7-2.6 31.6 1.9 43.4 12.2 10.9 9.5 16.9 23.1 16.5 37.1-0.3 9.4-3.5 18.7-10.1 29.3-8.6 13.9-20.3 27-35.9 40.2-1.9 1.6-3.7 2.2-5.2 2.2z"/>
                            </g>
                        </g>
                    </g>
                    <g id="&lt;Group&gt;">
                        <g id="&lt;Group&gt;">
                            <path id="&lt;Compound Path&gt;" fill-rule="evenodd" class="s17"
                                  d="m86.9 212.9c-2.8 0-5.3-1.4-7.1-3-27.9-23.7-45.7-44.8-58-68.3-6.1-11.9-9.5-24.6-9.4-36 0.2-34.1 26.2-63.2 61.9-69.1 23-3.8 46 2.7 63.3 17.8 15.9 13.8 24.6 33.6 24 54.1-0.4 13.7-5.1 27.3-14.6 42.7-12.6 20.2-29.7 39.4-52.4 58.5-2.8 2.4-5.4 3.3-7.7 3.3zm0.3-166.6q-5.5 0-11.1 0.9c-30 5-52.7 30.1-52.9 58.5 0 9.6 2.9 20.6 8.3 30.9 11.5 22.2 28.6 42.3 55.4 65.1q0 0 0.1 0.1 0.2-0.2 0.6-0.5c21.8-18.3 38.2-36.7 50.2-56 8.5-13.7 12.6-25.5 13-37.2 0.5-17.6-6.7-33.8-20.3-45.7-12.1-10.5-27.4-16.1-43.3-16.1z"/>
                        </g>
                    </g>
                    <g id="&lt;Group&gt;">
                        <path id="&lt;Path&gt;" class="s17"
                              d="m92.4 207.4h-10.8v-67.6c-5.2-3.8-12.6-10.9-22.4-21.5-12.7-13.6-26.6-30.1-36.1-41.5l8.4-6.9c9.4 11.3 23.2 27.6 35.6 41 13.4 14.5 19.8 19.6 22.7 21.4l2.6 1.6z"/>
                    </g>
                    <g id="&lt;Group&gt;">
                        <path id="&lt;Path&gt;" class="s17" d="m44.8 163l-9.7-5 23.2-45.8 9.7 4.9z"/>
                    </g>
                    <g id="&lt;Group&gt;">
                        <path id="&lt;Path&gt;" class="s17"
                              d="m92.4 207.4h-10.8v-73.5l2.6-1.6c3-1.8 9.3-6.9 22.7-21.4 12.3-13.3 26.2-29.7 35.7-41.1l8.3 6.9c-9.6 11.6-23.6 28.1-36.1 41.6-9.8 10.6-17.2 17.7-22.4 21.5z"/>
                    </g>
                    <g id="&lt;Group&gt;">
                        <path id="&lt;Path&gt;" class="s17" d="m129.2 163l-23.2-45.9 9.7-4.9 23.2 45.9z"/>
                    </g>
                    <g id="&lt;Group&gt;">
                        <path id="&lt;Path&gt;" class="s17" d="m83.1 109.2l-20.8-19.9 7.5-7.8 12.5 11.9 23.7-28.2 8.3 7z"/>
                    </g>
                    <g id="&lt;Group&gt;">
                        <path id="&lt;Path&gt;" class="s17" d="m77 45.1l-23.5-21.6 7.3-8 23.6 21.6z"/>
                    </g>
                    <g id="&lt;Group&gt;">
                        <path id="&lt;Path&gt;" class="s17" d="m97.1 45.1l-7.4-8 23.6-21.6 7.3 8z"/>
                    </g>
                </g>
                <g id="&lt;Group&gt;">
                    <path id="&lt;Path&gt;" class="s17"
                          d="m108.1 17.2c0 5.6 4.5 10.1 10.1 10.1 5.5 0 10.1-4.5 10.1-10.1 0-5.5-4.6-10.1-10.1-10.1-5.6 0-10.1 4.6-10.1 10.1z"/>
                </g>
            </g>
        </g>
    </g>
</svg>