<svg version="1.2" xmlns="http://www.w3.org/2000/svg" viewBox="0 0 245 243" width="245" height="243">
    <title>Bug Catcher-ai</title>
    <style>
        .s0 {
            fill: #ed0264
        }
    </style>
    <g id="_Artboards_">
    </g>
    <g id="Layer 1">
        <g id="&lt;Group&gt;">
            <g id="&lt;Group&gt;">
                <g id="&lt;Group&gt;">
                    <g id="&lt;Group&gt;">
                        <g id="&lt;Group&gt;">
                            <g id="&lt;Group&gt;">
                                <path id="&lt;Path&gt;" class="s0"
                                      d="m79.4 189.1c-0.3 0.2-0.6 0.3-0.8 0.5-11.8 14.2-25.7 26.3-38.4 39.6-2.5 2.7-5.4 4.6-8.9 5.8-7.7 2.7-18.6-2.3-21.7-9.8-3.3-8.1-1.5-15.1 4.4-21.2 11.5-11.9 23.2-23.8 34.9-35.6 2.3-2.4 4.9-4.5 7.4-6.9-11-18.9-14.8-39.6-12.5-61.1 2.2-19.7 9.9-37.6 22.9-52.7 27.8-32.4 69.6-42.3 106.7-30.5 18.6 5.9 34 16.6 46.4 31.6 3.3 3.9 6.6 8 8.7 13-8.2 3.3-16.1 6.5-24.1 9.8-14.5-20.3-33.8-31.9-58.8-32.8-25.1-0.9-45.7 8.7-61 28.4-25.1 32.2-19.1 80.6 16.1 105.1 18.2 12.6 38.3 16.3 59.6 11.1 21.2-5.3 37.5-17.8 48.2-37.5 7 4.8 14.1 9.7 21.5 14.8-16.1 26.2-38.3 43.5-68.8 49-30.3 5.5-57.5-1.6-81.8-20.6z"/>
                            </g>
                        </g>
                        <g id="&lt;Group&gt;">
                            <g id="&lt;Group&gt;">
                                <path id="&lt;Compound Path&gt;" fill-rule="evenodd" class="s0"
                                      d="m189.9 117.1c0 2.3-1.5 3.9-3.6 3.9q-6.1 0-12.2 0h-1.4c-0.1 0.5-0.1 0.9-0.1 1.3-0.1 5.4-1.2 10.6-3.6 15.5-0.5 0.9 0 1.3 0.4 1.7q5.8 5.8 11.6 11.6c1.3 1.3 1.6 3.1 0.9 4.5-1.3 2.5-4.4 3-6.6 0.8q-5.5-5.5-11.1-11c-0.1-0.2-0.3-0.4-0.3-0.4-2.7 1.6-5.2 3.3-7.9 4.6-2.2 1-4.6 1.6-7 2.1-4.5 0.9-9 0.4-13.5 0.3-3.2-0.1-6.3-1.2-9.1-2.7-2.5-1.4-5-2.8-7.1-4.8-0.1-0.1-0.3-0.2-0.6-0.3-0.4 0.6-0.9 1.2-1.4 1.8q-3.9 4.3-7.8 8.6c-0.6 0.7-1.2 1.5-1.9 2.2-1.1 1.1-3.2 1.3-4.6 0.6-2.3-1.2-2.5-4.6-1-6.1 2.2-2.3 4.4-4.8 6.5-7.2 1.9-2.2 3.7-4.4 5.6-6.5-2.6-5.2-3.6-10.7-3.5-16.5-0.5 0-0.9-0.1-1.3-0.1h-12.4c-1.2 0-3.1-1.1-3.5-2.2-0.6-1.5-0.3-2.8 0.8-4.1 1.1-1.3 2.5-1.5 3.9-1.5 3.6 0 7.3 0.1 10.8 0.1h1.7c0-0.5 0-1 0-1.4 0-5.1 0-10.2 0-15.2 0.1-0.8-0.2-1.4-0.7-1.9-3.2-3.2-6.4-6.5-9.7-9.6-1.3-1.3-1.1-2.9-1-4.4 0.1-0.8 2.2-2.2 3.1-2.3 1.7-0.1 2.8 0.5 4 1.6 2.9 3.1 6 6.1 9 9.1 0.6 0.6 1.1 0.9 2 0.9 16.3-0.1 32.6 0 48.9-0.1 0.5 0 1.2-0.3 1.6-0.7 3.2-3.2 6.5-6.3 9.6-9.6 1.3-1.4 4.5-1.5 5.7-0.1 1.4 1.7 1.5 4-0.1 5.6q-4.7 4.7-9.4 9.3c-0.7 0.7-1.1 1.4-1 2.5 0 5.4 0 10.8 0 16.3 0.4 0 0.9 0.1 1.3 0.1q6.2 0 12.4 0c2 0 3.6 1.6 3.6 3.7zm-26.5-8.1c-1.7-1.7-3.5-3.5-5.5-5.6-6.1 6.1-12.4 12.3-18.8 18.7-3.3-3.3-6.6-6.6-9.8-9.8q-2.7 2.6-5.4 5.2c5.2 5.2 10.4 10.4 15.5 15.4 8-8 16.1-16 24-23.9z"/>
                                <path id="&lt;Path&gt;" class="s0"
                                      d="m160.9 82.3q-19.3 0-38.7 0c-0.4-8.3 6.2-17.2 15.3-19 5.9-1.2 11.4-0.1 16.2 3.8 4.6 3.9 7.3 8.8 7.2 15.2z"/>
                            </g>
                        </g>
                    </g>
                </g>
            </g>
        </g>
    </g>
</svg>