<svg version="1.2" xmlns="http://www.w3.org/2000/svg" viewBox="0 0 280 210" width="280" height="210">
	<title>Bug Catcher-ai</title>
	<defs>
		<linearGradient id="g1" x2="1" gradientUnits="userSpaceOnUse" gradientTransform="matrix(159.73,0,0,154.614,1052.135,-821.914)">
			<stop offset="0" stop-color="#1c75bc"/>
			<stop offset="1" stop-color="#2b3990"/>
		</linearGradient>
		<linearGradient id="g2" x2="1" gradientUnits="userSpaceOnUse" gradientTransform="matrix(41.487,0,0,30.973,1109.897,-773.508)">
			<stop offset="0" stop-color="#1c75bc"/>
			<stop offset="1" stop-color="#2b3990"/>
		</linearGradient>
		<linearGradient id="g3" x2="1" gradientUnits="userSpaceOnUse" gradientTransform="matrix(0,52.31,-30.678,0,1029.202,-638.25)">
			<stop offset="0" stop-color="#1c75bc"/>
			<stop offset="1" stop-color="#2b3990"/>
		</linearGradient>
		<linearGradient id="g4" x2="1" gradientUnits="userSpaceOnUse" gradientTransform="matrix(0,52.31,-45.208,0,1039.227,-638.25)">
			<stop offset="0" stop-color="#1c75bc"/>
			<stop offset="1" stop-color="#2b3990"/>
		</linearGradient>
		<linearGradient id="g5" x2="1" gradientUnits="userSpaceOnUse" gradientTransform="matrix(0,52.31,-31.837,0,1086.353,-638.25)">
			<stop offset="0" stop-color="#1c75bc"/>
			<stop offset="1" stop-color="#2b3990"/>
		</linearGradient>
		<linearGradient id="g6" x2="1" gradientUnits="userSpaceOnUse" gradientTransform="matrix(0,52.31,-30.678,0,1140.28,-638.25)">
			<stop offset="0" stop-color="#1c75bc"/>
			<stop offset="1" stop-color="#2b3990"/>
		</linearGradient>
		<linearGradient id="g7" x2="1" gradientUnits="userSpaceOnUse" gradientTransform="matrix(0,52.31,-45.269,0,1150.3,-638.25)">
			<stop offset="0" stop-color="#1c75bc"/>
			<stop offset="1" stop-color="#2b3990"/>
		</linearGradient>
		<linearGradient id="g8" x2="1" gradientUnits="userSpaceOnUse" gradientTransform="matrix(0,52.31,-22.582,0,1202.969,-638.25)">
			<stop offset="0" stop-color="#1c75bc"/>
			<stop offset="1" stop-color="#2b3990"/>
		</linearGradient>
		<linearGradient id="g9" x2="1" gradientUnits="userSpaceOnUse" gradientTransform="matrix(0,52.31,-45.208,0,1199.063,-638.25)">
			<stop offset="0" stop-color="#1c75bc"/>
			<stop offset="1" stop-color="#2b3990"/>
		</linearGradient>
		<linearGradient id="g10" x2="1" gradientUnits="userSpaceOnUse" gradientTransform="matrix(0,52.31,-30.611,0,1248.96,-638.25)">
			<stop offset="0" stop-color="#1c75bc"/>
			<stop offset="1" stop-color="#2b3990"/>
		</linearGradient>
		<linearGradient id="g11" x2="1" gradientUnits="userSpaceOnUse" gradientTransform="matrix(0,52.31,-45.208,0,1259.118,-638.25)">
			<stop offset="0" stop-color="#1c75bc"/>
			<stop offset="1" stop-color="#2b3990"/>
		</linearGradient>
		<linearGradient id="g12" x2="1" gradientUnits="userSpaceOnUse" gradientTransform="matrix(0,52.31,-45.208,0,1289.145,-638.25)">
			<stop offset="0" stop-color="#1c75bc"/>
			<stop offset="1" stop-color="#2b3990"/>
		</linearGradient>
		<linearGradient id="g13" x2="1" gradientUnits="userSpaceOnUse" gradientTransform="matrix(278.931,0,0,269.998,1886.648,-838.998)">
			<stop offset="0" stop-color="#1c75bc"/>
			<stop offset="1" stop-color="#2b3990"/>
		</linearGradient>
		<linearGradient id="g14" x2="1" gradientUnits="userSpaceOnUse" gradientTransform="matrix(72.447,0,0,54.087,1987.515,-754.468)">
			<stop offset="0" stop-color="#1c75bc"/>
			<stop offset="1" stop-color="#2b3990"/>
		</linearGradient>
	</defs>
	<style>
		.s0 { fill: #414042 } 
		.s1 { fill: #ff1a36 } 
		.s2 { fill: url(#g1) } 
		.s3 { fill: url(#g2) } 
		.s4 { fill: url(#g3) } 
		.s5 { fill: url(#g4) } 
		.s6 { fill: url(#g5) } 
		.s7 { fill: url(#g6) } 
		.s8 { fill: url(#g7) } 
		.s9 { fill: url(#g8) } 
		.s10 { fill: url(#g9) } 
		.s11 { fill: url(#g10) } 
		.s12 { fill: url(#g11) } 
		.s13 { fill: url(#g12) } 
		.s14 { fill: url(#g13) } 
		.s15 { fill: url(#g14) } 
		.s16 { fill: #c4f255 } 
		.s17 { fill: #006838 } 
	</style>
	<g id="_Artboards_">
	</g>
	<g id="Layer 1">
		<g id="&lt;Group&gt;">
			<g id="&lt;Group&gt;">
				<g id="&lt;Group&gt;">
					<g id="&lt;Group&gt;">
						<g id="&lt;Group&gt;">
							<g id="&lt;Group&gt;">
								<path id="&lt;Path&gt;" class="s0" d="m116.4-713c-0.2 0.1-0.4 0.2-0.5 0.3-7.1 8.5-15.4 15.7-22.9 23.7-1.5 1.5-3.2 2.7-5.3 3.4-4.7 1.6-11.2-1.3-13-5.8-2-4.9-0.9-9.1 2.6-12.7 6.9-7.1 13.9-14.2 20.9-21.2 1.3-1.5 2.8-2.8 4.4-4.2-6.6-11.3-8.9-23.6-7.5-36.4 1.3-11.8 5.9-22.5 13.7-31.5 16.6-19.3 41.6-25.3 63.7-18.2 11.1 3.5 20.3 9.9 27.7 18.8 1.9 2.4 3.9 4.8 5.2 7.8-4.9 2-9.6 3.9-14.4 5.9-8.7-12.2-20.2-19.1-35.1-19.6-15-0.5-27.3 5.2-36.4 16.9-15.1 19.3-11.4 48.2 9.6 62.8 10.8 7.5 22.9 9.7 35.6 6.6 12.6-3.1 22.3-10.6 28.7-22.4 4.2 2.9 8.5 5.8 12.9 8.8-9.6 15.7-22.9 26-41.1 29.3-18.1 3.3-34.3-0.9-48.8-12.3z"/>
							</g>
						</g>
						<g id="&lt;Group&gt;">
							<g id="&lt;Group&gt;">
								<path id="&lt;Compound Path&gt;" fill-rule="evenodd" class="s1" d="m182.3-756c0 1.4-0.8 2.4-2.1 2.4q-3.7 0-7.3 0h-0.9c0 0.3 0 0.5 0 0.7-0.1 3.3-0.7 6.4-2.2 9.3-0.2 0.5 0 0.7 0.3 1q3.5 3.5 6.9 6.9c0.8 0.8 1 1.9 0.5 2.7-0.7 1.5-2.6 1.8-3.9 0.5q-3.3-3.3-6.6-6.6c-0.1-0.1-0.2-0.2-0.2-0.2-1.6 0.9-3.1 2-4.7 2.7-1.3 0.6-2.8 1-4.2 1.3-2.7 0.5-5.4 0.2-8.1 0.1-1.8 0-3.7-0.6-5.4-1.6-1.5-0.8-3-1.6-4.2-2.8-0.1-0.1-0.2-0.1-0.4-0.2-0.2 0.4-0.5 0.7-0.8 1.1q-2.3 2.5-4.7 5.1c-0.4 0.4-0.7 0.9-1.1 1.3-0.7 0.7-1.9 0.8-2.7 0.4-1.5-0.7-1.5-2.7-0.7-3.6 1.4-1.5 2.7-2.9 3.9-4.4 1.1-1.3 2.2-2.6 3.3-3.9-1.5-3.1-2.1-6.3-2-9.8q-0.4 0-0.8 0h-7.4c-0.7 0-1.8-0.7-2.1-1.4-0.3-0.9-0.2-1.6 0.5-2.4 0.6-0.8 1.5-0.9 2.3-0.9q3.3 0 6.5 0c0.3 0.1 0.6 0.1 1 0.1q0-0.5 0-0.9 0-4.5 0-9.1c0-0.4-0.1-0.8-0.4-1.1-2-1.9-3.9-3.9-5.8-5.7-0.8-0.8-0.7-1.7-0.6-2.6 0-0.6 1.3-1.3 1.8-1.4 1-0.1 1.7 0.2 2.4 1 1.8 1.8 3.6 3.5 5.4 5.4 0.3 0.3 0.7 0.5 1.2 0.5q14.6 0 29.2 0c0.3 0 0.7-0.2 0.9-0.5 2-1.9 3.9-3.8 5.8-5.7 0.7-0.9 2.6-0.9 3.3-0.1 0.9 1 0.9 2.4 0 3.4q-2.8 2.8-5.6 5.5c-0.4 0.5-0.6 0.9-0.6 1.5 0 3.2 0 6.5 0 9.8q0.4 0 0.8 0 3.7 0 7.4 0c1.2 0 2.1 1 2.1 2.2zm-15.8-4.8c-1-1-2.1-2.1-3.3-3.3q-5.5 5.4-11.2 11.1c-1.9-2-3.9-4-5.8-5.9q-1.7 1.6-3.3 3.2c3.1 3.1 6.2 6.2 9.3 9.2 4.8-4.8 9.6-9.6 14.3-14.3z"/>
								<path id="&lt;Path&gt;" class="s1" d="m165-776.8q-11.5 0-23.1 0c-0.3-4.9 3.7-10.2 9.1-11.3 3.6-0.7 6.9-0.1 9.7 2.3 2.8 2.3 4.3 5.2 4.3 9z"/>
							</g>
						</g>
					</g>
				</g>
			</g>
			<g id="&lt;Group&gt;">
				<path id="&lt;Compound Path&gt;" fill-rule="evenodd" class="s1" d="m4.5-612.5c0 6.2-4 11-11.8 11h-22.1v-40.6h21.4c7.7 0 11.7 4.9 11.7 10.4 0 5-3.2 8.5-7 9.3 4.4 0.7 7.8 4.9 7.8 9.9zm-25.2-13.5h10.8c2.9 0 4.8-1.6 4.8-4.2 0-2.5-1.9-4.3-4.8-4.3h-10.8zm16.4 12.3c0-2.6-1.9-4.7-5.2-4.7h-11.2v9.3h11.2c3.2 0 5.2-1.7 5.2-4.6z"/>
				<path id="&lt;Compound Path&gt;" class="s1" d="m30.7-630.9v19.9c-1.4 1.7-3.7 3.4-6.7 3.4-3.3 0-5.5-1.4-5.5-5.4v-17.9h-7.7v20.9c0 5.7 3.1 9.3 9.5 9.3 4.8 0 8.4-2.3 10.4-4.5v3.7h7.7v-29.4z"/>
				<path id="&lt;Compound Path&gt;" fill-rule="evenodd" class="s1" d="m74-630.9v27.5c0 11.1-8.6 13.9-15.9 13.9-4.9 0-8.9-1.2-12.6-4.4l3.4-5.6c2.4 2.6 5.6 3.6 9.2 3.6 3.8 0 8.2-1.6 8.2-7.5v-2.9c-2.3 2.9-5.5 4.6-9.1 4.6-7.3 0-13-5.1-13-14.9 0-9.7 5.5-15 13-15 3.5 0 6.7 1.4 9.1 4.5v-3.8zm-7.7 9.4c-1.4-1.8-4.2-3.2-6.7-3.2-4.4 0-7.5 3-7.5 8.1 0 5 3.1 8.1 7.5 8.1 2.5 0 5.3-1.5 6.7-3.4z"/>
				<path id="&lt;Compound Path&gt;" class="s0" d="m117.3-608.4c-7.5 0-12.8-5.7-12.8-13.4 0-7.6 5.3-13.3 12.8-13.3 4.1 0 7.8 2.6 9.5 5.9l7.4-3.6c-2.9-5.2-8-10-16.9-10-12.3 0-21.7 8.5-21.7 21 0 12.5 9.4 21.1 21.7 21.1 8.9 0 14-5 16.9-10l-7.4-3.6c-1.7 3.3-5.4 5.9-9.5 5.9z"/>
				<path id="&lt;Compound Path&gt;" fill-rule="evenodd" class="s0" d="m164.7-620.5v19h-7.8v-3.1c-2 2.5-5.5 3.9-9.4 3.9-4.6 0-10.1-3.2-10.1-9.8 0-6.9 5.5-9.5 10.1-9.5 4 0 7.4 1.3 9.4 3.6v-3.7c0-3-2.6-4.9-6.5-4.9-3.1 0-6 1.2-8.4 3.4l-3.1-5.4c3.6-3.2 8.2-4.6 12.9-4.6 6.7 0 12.9 2.7 12.9 11.1zm-7.8 8.3c-1.3-1.7-3.7-2.6-6.2-2.6-3.1 0-5.6 1.6-5.6 4.4 0 2.8 2.5 4.4 5.6 4.4 2.5 0 4.9-0.8 6.2-2.5z"/>
				<path id="&lt;Compound Path&gt;" class="s0" d="m187-608.5c-0.5 0.5-1.6 0.9-2.7 0.9-1.7 0-2.7-1.4-2.7-3.3v-13.2h6v-6.8h-6v-8h-7.7v8h-4.9v6.8h4.9v15.3c0 5.3 2.8 8.1 8.3 8.1 3.2 0 5.3-0.9 6.4-1.9z"/>
				<path id="&lt;Compound Path&gt;" class="s0" d="m206.9-607.6c-4.7 0-7.9-3.5-7.9-8.6 0-5.1 3.2-8.5 7.9-8.5 2.7 0 4.8 1.1 6.3 3.1l5-4.7c-1.9-2.7-5.6-5.3-11.6-5.3-9 0-15.6 6.4-15.6 15.4 0 9.1 6.6 15.5 15.6 15.5 6 0 9.7-2.7 11.6-5.4l-5-4.8c-1.5 2.1-3.6 3.3-6.3 3.3z"/>
				<path id="&lt;Compound Path&gt;" class="s0" d="m241.3-631.6c-4.8 0-8.4 2.3-10.2 4.5v-15h-7.8v40.6h7.8v-19.8c1.2-1.7 3.6-3.4 6.7-3.4 3.2 0 5.4 1.2 5.4 5.3v17.9h7.7v-20.9c0-5.7-3.1-9.2-9.6-9.2z"/>
				<path id="&lt;Compound Path&gt;" fill-rule="evenodd" class="s0" d="m286.7-613.7h-21.9c0.5 3.6 3.5 6.6 8.5 6.6 2.5 0 5.9-1 7.8-2.8l3.4 5.1c-2.9 2.7-7.5 4.1-12.1 4.1-8.9 0-15.7-6.1-15.7-15.5 0-8.5 6.3-15.4 15.2-15.4 8.9 0 14.8 6.6 14.8 16.1zm-7.5-5.3c-0.2-2.8-2.2-6.3-7.3-6.3-4.8 0-6.9 3.3-7.2 6.3z"/>
				<path id="&lt;Compound Path&gt;" class="s0" d="m300-626.9v-4h-7.7v29.4h7.7v-19.4c1.3-1.9 4.7-3.4 7.3-3.4 0.9 0 1.5 0.1 2.1 0.2v-7.5c-3.7 0-7.3 2.1-9.4 4.7z"/>
			</g>
		</g>
		<g id="&lt;Group&gt;">
			<g id="&lt;Group&gt;">
				<g id="&lt;Group&gt;">
					<g id="&lt;Group&gt;">
						<g id="&lt;Group&gt;">
							<g id="&lt;Group&gt;">
								<path id="&lt;Path&gt;" class="s0" d="m100.4-1313.9c-0.3 0.2-0.6 0.3-0.8 0.5-11.8 14.2-25.7 26.3-38.4 39.6-2.5 2.7-5.4 4.6-8.9 5.8-7.7 2.7-18.6-2.3-21.7-9.8-3.3-8.1-1.5-15.1 4.4-21.2 11.5-11.9 23.2-23.8 34.9-35.6 2.3-2.4 4.9-4.5 7.4-6.9-11-18.9-14.8-39.6-12.5-61.1 2.2-19.7 9.9-37.6 22.9-52.7 27.8-32.4 69.6-42.3 106.7-30.5 18.6 5.9 34 16.6 46.4 31.6 3.3 3.9 6.6 8 8.7 13-8.2 3.3-16.1 6.5-24.1 9.8-14.5-20.3-33.8-31.9-58.8-32.8-25.1-0.9-45.7 8.7-61 28.4-25.1 32.2-19.1 80.6 16.1 105.1 18.2 12.6 38.3 16.3 59.6 11.1 21.2-5.3 37.5-17.8 48.2-37.5 7 4.8 14.1 9.7 21.5 14.8-16.1 26.2-38.3 43.5-68.8 49-30.3 5.5-57.5-1.6-81.8-20.6z"/>
							</g>
						</g>
						<g id="&lt;Group&gt;">
							<g id="&lt;Group&gt;">
								<path id="&lt;Compound Path&gt;" fill-rule="evenodd" class="s1" d="m210.9-1385.9c0 2.3-1.5 3.9-3.6 3.9q-6.1 0-12.2 0h-1.4c-0.1 0.5-0.1 0.9-0.1 1.3-0.1 5.4-1.2 10.6-3.6 15.5-0.5 0.9 0 1.3 0.4 1.7q5.8 5.8 11.6 11.6c1.3 1.3 1.6 3.1 0.9 4.5-1.3 2.5-4.4 3-6.6 0.8q-5.5-5.5-11.1-11c-0.1-0.2-0.3-0.4-0.3-0.4-2.7 1.6-5.2 3.3-7.9 4.6-2.2 1-4.6 1.6-7 2.1-4.5 0.9-9 0.4-13.5 0.3-3.2-0.1-6.3-1.2-9.1-2.7-2.5-1.4-5-2.8-7.1-4.8-0.1-0.1-0.3-0.2-0.6-0.3-0.4 0.6-0.9 1.2-1.4 1.8q-3.9 4.3-7.8 8.6c-0.6 0.7-1.2 1.5-1.9 2.2-1.1 1.1-3.2 1.3-4.6 0.6-2.3-1.2-2.5-4.6-1-6.1 2.2-2.3 4.4-4.8 6.5-7.2 1.9-2.2 3.7-4.4 5.6-6.5-2.6-5.2-3.6-10.7-3.5-16.5-0.5 0-0.9-0.1-1.3-0.1h-12.4c-1.2 0-3.1-1.1-3.5-2.2-0.6-1.5-0.3-2.8 0.8-4.1 1.1-1.3 2.5-1.5 3.9-1.5 3.6 0 7.3 0.1 10.8 0.1h1.7c0-0.5 0-1 0-1.4 0-5.1 0-10.2 0-15.2 0.1-0.8-0.2-1.4-0.7-1.9-3.2-3.2-6.4-6.5-9.7-9.6-1.3-1.3-1.1-2.9-1-4.4 0.1-0.8 2.2-2.2 3.1-2.3 1.7-0.1 2.8 0.5 4 1.6 2.9 3.1 6 6.1 9 9.1 0.6 0.6 1.1 0.9 2 0.9 16.3-0.1 32.6 0 48.9-0.1 0.5 0 1.2-0.3 1.6-0.7 3.2-3.2 6.5-6.3 9.6-9.6 1.3-1.4 4.5-1.5 5.7-0.1 1.4 1.7 1.5 4-0.1 5.6q-4.7 4.7-9.4 9.3c-0.7 0.7-1.1 1.4-1 2.5 0 5.4 0 10.8 0 16.3 0.4 0 0.9 0.1 1.3 0.1q6.2 0 12.4 0c2 0 3.6 1.6 3.6 3.7zm-26.5-8.1c-1.7-1.7-3.5-3.5-5.5-5.6-6.1 6.1-12.4 12.3-18.8 18.7-3.3-3.3-6.6-6.6-9.8-9.8q-2.7 2.6-5.4 5.2c5.2 5.2 10.4 10.4 15.5 15.4 8-8 16.1-16 24-23.9z"/>
								<path id="&lt;Path&gt;" class="s1" d="m181.9-1420.7q-19.3 0-38.7 0c-0.4-8.3 6.2-17.2 15.3-19 5.9-1.2 11.4-0.1 16.2 3.8 4.6 3.9 7.3 8.8 7.2 15.2z"/>
							</g>
						</g>
					</g>
				</g>
			</g>
		</g>
		<g id="&lt;Group&gt;">
			<g id="&lt;Group&gt;">
				<path id="&lt;Compound Path&gt;" fill-rule="evenodd" class="s2" d="m1138.7-725.8c-1.9 1.1-3.5 2.2-5.2 3-1.4 0.7-1.9 1.5-1.9 3.1 0.1 16.8 0.1 33.7 0.1 50.5 0 0.6 0 1.2 0 1.9-2.1 0-4 0-6.2 0q0-0.8 0-1.5c0-17.1 0-34.2 0-51.2 0-1.3-0.4-2-1.6-2.6-2.1-1.2-4.2-2.6-6.6-4 0 13.5 0 26.8 0 40.2-2.2 0-4.1 0-6.2 0 0-15.1 0-30.2 0-45.6-1.6 0.8-2.9 1.4-4.2 2-2.4 1.2-4.7 2.4-7.1 3.5-0.9 0.4-1.2 0.9-1.2 1.8 0.1 3.5 0.1 6.9 0.1 10.4 0 0.5 0 0.9 0 1.5-5.8 0-11.3 0-17 0 0-2 0-3.8 0-5.9 3.5 0 7 0 10.7 0 0.1-0.7 0.1-1.2 0.2-1.8 0-2.5 0-5.1-0.1-7.6 0-1.3 0.4-2 1.6-2.5 3.8-1.8 7.7-3.7 11.5-5.6 0.3-0.2 0.6-0.4 1-0.6-1-1.5-1.9-2.9-3-4.3-0.2-0.3-0.9-0.3-1.4-0.3q-14.9 0-29.8 0c-0.6 0-1.2 0-1.9 0 0-2.1 0-4 0-6.1 9.8 0 19.7 0 29.6 0-1-3.2-1.9-6.1-2.9-9.2-15 0-29.9 0-45.1 0 0-2 0-4 0-6.1 14.7 0 29.4 0 44.1 0 0-3 0-5.8 0-8.8-0.7-0.1-1.2-0.1-1.7-0.1-6.1 0-12.3 0-18.5-0.1-1 0-1.7 0.3-2.5 1-2 1.9-5.3 2.2-7.5 0.8-2.5-1.6-3.7-4.4-2.9-7.3 0.7-2.6 3.2-4.7 6-4.7 2.4 0 4.4 1 5.6 3.2 0.4 0.7 0.9 0.9 1.7 0.9q9.2 0 18.4 0c0.4 0 0.8-0.1 1.4-0.2 0-1 0.1-1.9-0.1-2.8-0.1-0.4-0.6-0.8-1-1q-5.3-2.7-10.5-5.2c-0.9-0.4-1.2-0.8-1.2-1.8 0.1-3.1 0-6.3 0-9.6-3.6 0-7 0-10.6 0 0-2.1 0-4 0-6.1 5.5 0 11 0 16.7 0 0 0.5 0.1 1 0.1 1.5 0 3.4 0.1 6.8 0 10.2 0 1 0.3 1.6 1.1 2 3.1 1.4 6.1 2.9 9.1 4.4 1.5 0.7 3.7-0.6 4-2.2 1.7-9.1 6.9-15.5 15.6-18.9q0.4-0.2 0.9-0.4c0 0 0.1 0 0.1-0.1-3.2-5.8-15-11.9-26.2-3.6-1.2-1.6-2.5-3.1-3.8-4.7q4.5-3.7 9.8-4.9c7.5-1.6 14.3-0.2 20.5 4.4 2.5 1.9 4.5 4.2 6.1 6.9q1.4 2.2 2.7 0.1c5.4-8.5 13.1-12.5 23.1-11.9 4.5 0.3 8.5 1.8 12.2 4.5q0.4 0.3 0.8 0.6c0.1 0.1 0.1 0.2 0.2 0.4q-1.7 2.2-3.7 4.6c-5.4-4-11.3-5.2-17.6-3-3.7 1.3-6.8 3.5-9 7 8.7 3.7 14 10.1 15.7 19.5 1.7 0.6 3.4 1.3 5.2 1.9 0.3 0.2 0.8 0 1.2-0.2 3.1-1.5 6.2-3 9.3-4.5 0.8-0.4 1-0.9 1-1.7 0-3.4 0-6.8 0-10.2 0-0.6 0-1.1 0-1.7 5.7 0 11.3 0 16.9 0 0 2 0 3.9 0 6-3.5 0-7 0-10.8 0 0 0.8 0 1.4 0 2 0 2.6 0 5.1 0 7.7 0 0.9-0.2 1.5-1.1 1.9-3.3 1.5-6.6 3.2-9.9 4.8-2.2 1.1-2.5 1.6-1.7 4.3 8.5 0 17 0 25.7 0 0 2.1 0 4 0 6.1-8.7 0-17.2 0-26 0 0 3 0 5.8 0 8.8 0.3 0.1 0.8 0.1 1.3 0.1 11.9 0 23.8 0 35.7 0.1 1 0 1.5-0.4 2.1-1.2 1.7-2.5 4.3-3.4 7.2-2.6 2.5 0.6 4.4 3.1 4.6 5.8 0.1 2.6-1.5 5.2-4.2 6.3-2.4 0.9-4.7 0.4-6.7-1.3-0.6-0.4-1.4-0.8-2.1-0.8-12.6-0.1-25.2-0.1-37.8-0.1-0.4 0-0.8 0.1-1.2 0.1-0.9 3-1.9 5.9-2.9 9 10 0 20 0 30 0 0 2.1 0 4 0 6.1-0.7 0-1.3 0.1-1.9 0.1q-15 0-30-0.1c-1 0-1.7 0.3-2.2 1.2-0.7 1.1-1.5 2.1-2.4 3.4 0.8 0.4 1.5 0.8 2.3 1.1 3.6 1.8 7.3 3.6 11 5.4 0.9 0.4 1.3 1 1.3 2-0.1 2.6-0.1 5.3-0.1 7.9 0 0.5 0.1 1 0.1 1.7 1.7 0 3.2 0.1 4.7 0 0.5-0.1 0.9-0.7 1.3-1.1 2.6-2.8 6.3-3.2 9.1-0.8 2.9 2.4 3.1 6.6 0.5 9.3-2.6 2.7-7 2.7-9.4-0.1-0.8-1-1.5-1.3-2.7-1.3-3.2 0.1-6.4 0-9.7 0-0.1-0.5-0.1-1-0.1-1.5 0-3.4 0-6.8 0-10.2 0-1-0.3-1.6-1.2-2-3.8-1.8-7.5-3.7-11.3-5.5-1.2 0.5-1.6 1.4-1.6 2.7 0 13.7 0 27.4 0 41.1 0 0.6 0 1.2 0 1.8-2.1 0-3.9 0-6 0 0-13.1 0-26.1 0-39.4zm-36.4-54.6c0 4.8-0.2 9.2 0.1 13.5 0.2 3.7 0.6 7.5 1.5 11.1 3.6 12.9 12 21.9 23.7 28.1 0.5 0.3 1.5 0.3 2 0 1.9-1 3.7-2.1 5.4-3.3 10.8-7.5 17.8-17.4 19.3-30.6 0.6-5.9 0.4-11.9 0.4-17.8 0-0.4-0.5-1-0.9-1.2-8.4-3.4-17.1-5.1-26.1-4.9-5.3 0-10.6 0.6-15.8 2.1-3.2 0.9-6.3 2-9.6 3zm41.9-9.6c-0.9-5.7-7.8-12.9-16.9-12.8-9.5 0.1-16.2 7.8-16.8 13.4q16.7-4.2 33.7-0.6z"/>
				<path id="&lt;Path&gt;" class="s3" d="m1126.2-742.5c-5.4-5.3-10.8-10.8-16.3-16.2 1.9-1.8 3.8-3.7 5.7-5.5 3.4 3.3 6.9 6.8 10.3 10.3q10.1-10 19.7-19.6c2.1 2.1 4 4 5.8 5.8-8.3 8.3-16.8 16.8-25.2 25.2z"/>
			</g>
			<g id="&lt;Group&gt;">
				<path id="&lt;Compound Path&gt;" fill-rule="evenodd" class="s4" d="m1004.9-601q0 2.7-3.4 4.9-3.1 2-6 2h-16v-43.4h16.1q3.5 0 6.2 1.9 3.1 2.1 3.1 5.5v6.5q0 1.5-1.4 3.4-1.3 1.8-2.7 2.6 1.4 0.8 2.7 2.8 1.4 2.1 1.4 3.6zm-8.5-18.5v-13.9h-8.4v13.9zm0 21.4v-17.4h-8.4v17.4z"/>
				<path id="&lt;Compound Path&gt;" class="s5" d="m1035-594.1h-8.3v-1.9q-1.1 1.9-4.8 1.9h-7.8q-4.3 0-4.3-2.7v-26.4h8.4v25.1h5.7l2.7-1.9v-23.2h8.4z"/>
				<path id="&lt;Compound Path&gt;" fill-rule="evenodd" class="s6" d="m1065-594.1v7.6q0 3.7-7.1 3.8h-17.8l-0.1-3.9h16.6v-9.7q-2.1 2.2-4.5 2.2h-8.1q-4.1 0-4.1-3.8v-21.3q0-4.1 4.6-4l8 0.2q1.2 0 4 1.9v-2.9h8.5zm-8.5-5.7v-17.6l-2-1.8h-6.3v21.2h6.5z"/>
				<path id="&lt;Compound Path&gt;" class="s7" d="m1116-598.6q0 2.5-0.9 3.3-1.2 1.2-5.1 1.2h-13.6q-3.8 0-5-1.2-0.8-0.8-0.8-3.3v-34.4q0-2.5 0.8-3.4 1.2-1.1 5-1.1h13.6q3.9 0 5.1 1.1 0.9 0.9 0.9 3.4v2.5h-8.5v-3h-8.4v35.4h8.4v-3.1h8.5z"/>
				<path id="&lt;Compound Path&gt;" fill-rule="evenodd" class="s8" d="m1146.1-616.3l-0.1 0.1v22.1h-8.1l-0.1-2.3q-0.7 0.7-2.2 1.5-1.6 0.8-2.5 0.8h-8.1q-4.1 0-4.1-3.8v-13.1q0-3.9 4.7-3.9l7.9-0.1q0.8 0 4 2.2l0.1-0.3v-6.2h-16.3l0.1-3.9h17.4q7 0 7.3 6.9zm-8.6 16.5v-9.3l-2-1.9h-6.3v13h6.5z"/>
				<path id="&lt;Compound Path&gt;" class="s9" d="m1167.3-619.6h-7.8v25.5l-8.5-0.1-0.1-37.7h8.6v8.5h7.8z"/>
				<path id="&lt;Compound Path&gt;" class="s10" d="m1194.8-598q0 2.5-1.4 3.3-1.1 0.6-4 0.6h-14.4q-2.9 0-3.9-0.6-1.4-0.7-1.4-3.2v-21.6q0-2.4 1.2-3.1 1-0.6 3.8-0.6h15.6q2.9 0 3.8 0.8 0.7 0.6 0.7 2.4v4h-8.5v-3.2h-8.3v21.2h8.3v-3.6h8.5z"/>
				<path id="&lt;Compound Path&gt;" class="s11" d="m1224.8-594.1h-8.3v-25.1h-8.5v25.1h-8.3v-43h8.3v13.9h10.7q2.8 0 4.6 2 1.5 1.6 1.5 3.3z"/>
				<path id="&lt;Compound Path&gt;" fill-rule="evenodd" class="s12" d="m1254.9-597q0 1.7-0.5 2.1-0.8 0.8-3.3 0.8h-17.6q-2.5 0-3.3-0.7-0.5-0.5-0.5-2v-22.7q0-2.1 0.7-2.8 0.8-0.9 3.7-0.9h16q3 0 4 0.9 0.8 0.7 0.8 2.8v12h-16.8v9.5h8.3v-3h8.5zm-8.5-14.7v-7.6h-8.3v7.6z"/>
				<path id="&lt;Compound Path&gt;" class="s13" d="m1284.9-616.6h-8.3v-2.6h-5.8l-2.7 1.8v23.3h-8.3v-29.1h8.3v1.9q1-1.9 4.8-1.9h7.7q4.3 0 4.3 2.6z"/>
			</g>
		</g>
		<g id="&lt;Group&gt;">
			<g id="&lt;Group&gt;">
				<path id="&lt;Compound Path&gt;" fill-rule="evenodd" class="s14" d="m2037.8-671.1c-3.4 1.9-6.1 3.8-9.1 5.2-2.4 1.1-3.2 2.6-3.2 5.3 0.1 29.5 0 58.9 0 88.4 0 1 0 2 0 3.2-3.6 0-7 0-10.8 0q0-1.3 0-2.7c0-29.8 0-59.6 0.1-89.3 0-2.4-0.7-3.6-2.7-4.6-3.9-2.1-7.5-4.5-11.7-7 0 23.6 0 46.9 0 70.3-3.8 0-7.1 0-10.8 0 0-26.5 0-52.8 0-79.6-2.7 1.3-5 2.3-7.3 3.4-4.2 2-8.3 4.2-12.5 6.1-1.4 0.7-2 1.6-1.9 3.2 0 6 0 12.1 0 18.1 0 0.8 0 1.7 0 2.6-10 0-19.7 0-29.6 0 0-3.4 0-6.6 0-10.2 6.1 0 12.3 0 18.7 0 0.1-1.3 0.2-2.2 0.2-3.1 0-4.5 0.2-9 0-13.5-0.1-2.2 0.6-3.3 2.7-4.2 6.7-3.2 13.4-6.5 20.1-9.8 0.6-0.3 1-0.6 1.8-1.1-1.8-2.5-3.4-5.1-5.2-7.4-0.5-0.6-1.7-0.6-2.6-0.6q-25.9-0.1-51.9-0.1c-1.1 0-2.2 0-3.5 0 0-3.6 0-6.9 0-10.6 17.3 0 34.5 0 51.8 0-1.7-5.5-3.4-10.6-5.1-16-26.1 0-52.2 0-78.7 0 0-3.6 0-6.9 0-10.6 25.7 0 51.3 0 77 0 0-5.3 0-10.2 0-15.5-1.1 0-2-0.2-2.9-0.2-10.8 0-21.6 0.1-32.3 0-1.8 0-3.1 0.4-4.4 1.7-3.5 3.3-9.3 3.7-13.2 1.3-4.4-2.7-6.4-7.7-5-12.7 1.2-4.5 5.6-8.2 10.4-8.2 4.2 0 7.7 1.7 9.9 5.5 0.7 1.2 1.5 1.7 2.9 1.7 10.7-0.1 21.5 0 32.2-0.1 0.7 0 1.4-0.1 2.3-0.2 0-1.8 0.2-3.4 0-5-0.2-0.7-1.1-1.4-1.9-1.8-6.1-3-12.2-6-18.3-8.9-1.5-0.7-2.1-1.6-2-3.2 0.1-5.5 0-11 0-16.8-6.3 0-12.3 0-18.6 0 0-3.7 0-7.1 0-10.6 9.7 0 19.3 0 29.2 0 0.1 0.8 0.2 1.7 0.2 2.6 0 6 0.1 11.9-0.1 17.8 0 1.7 0.5 2.7 2.1 3.4 5.3 2.5 10.5 5.2 15.7 7.7 2.6 1.2 6.5-1 7-3.7 3-16 12.1-27.1 27.2-33.1q0.9-0.3 1.7-0.6c0.1-0.1 0.1-0.2 0.1-0.2-5.6-10.3-26.1-20.8-45.6-6.4-2.2-2.7-4.4-5.4-6.7-8.2 5.2-4.3 10.9-7.1 17.1-8.5 13-2.8 25-0.4 35.7 7.7 4.4 3.3 7.9 7.3 10.8 12 1.5 2.6 3.1 2.6 4.7 0.1 9.4-14.7 22.8-21.7 40.3-20.7 7.8 0.5 14.9 3.2 21.3 7.8q0.7 0.5 1.4 1.1c0.1 0.1 0.1 0.3 0.3 0.8-2 2.5-4.1 5.2-6.4 8-9.4-7.1-19.7-9.2-30.8-5.3-6.4 2.3-11.8 6.2-15.7 12.3 15.3 6.4 24.5 17.5 27.4 34 2.9 1.1 6 2.3 9 3.3 0.7 0.3 1.6 0 2.2-0.3 5.4-2.6 10.8-5.4 16.3-7.9 1.4-0.7 1.8-1.6 1.7-3 0-6 0-11.9 0-17.8 0-1 0-1.9 0-2.9 10 0 19.7 0 29.6 0 0 3.5 0 6.8 0 10.4-6.2 0-12.4 0-18.9 0 0 1.4 0 2.5 0 3.5 0 4.5-0.1 9 0 13.5 0 1.6-0.4 2.5-1.9 3.2-5.8 2.8-11.6 5.7-17.4 8.5-3.8 1.8-4.3 2.8-3 7.5 14.9 0 29.8 0 45 0 0 3.6 0 7 0 10.7-15.2 0-30.1 0-45.5 0 0 5.2 0 10.1 0 15.4 0.6 0 1.5 0.1 2.4 0.1 20.7 0 41.5 0 62.2 0.1 1.8 0 2.8-0.6 3.8-2.1 2.9-4.4 7.5-5.9 12.6-4.6 4.2 1.2 7.5 5.5 7.9 10.3 0.3 4.5-2.6 9.1-7.2 10.9-4.3 1.7-8.2 0.7-11.8-2.2-1-0.8-2.4-1.5-3.6-1.5-22-0.1-44.1-0.1-66.1-0.1-0.7 0-1.3 0.1-2 0.2-1.7 5.2-3.3 10.3-5.1 15.8 17.5 0 34.8 0 52.4 0 0 3.6 0 6.9 0 10.4-1.2 0.1-2.3 0.2-3.4 0.2-17.4 0-34.9 0.1-52.4 0-1.7 0-2.9 0.4-3.8 1.9-1.2 2-2.6 3.8-4.1 6 1.4 0.7 2.6 1.4 3.9 2.1 6.4 3.1 12.8 6.3 19.2 9.3 1.7 0.8 2.3 1.7 2.2 3.5-0.1 4.6 0 9.2 0 13.7 0 1 0.1 1.9 0.2 3.1 2.9 0 5.5 0.1 8.1-0.1 0.9-0.1 1.7-1.1 2.3-1.8 4.5-4.9 11.1-5.6 15.9-1.5 5 4.2 5.3 11.6 0.8 16.3-4.5 4.6-12.2 4.6-16.3-0.2-1.4-1.7-2.7-2.3-4.8-2.2-5.6 0.1-11.2 0-17 0 0-1-0.1-1.8-0.1-2.7 0-5.9-0.1-11.8 0-17.8 0.1-1.7-0.4-2.8-2.1-3.6-6.6-3.1-13.1-6.4-19.7-9.6-2.1 1-2.8 2.5-2.8 4.8 0 23.9 0 47.9 0 71.8 0 1 0 2 0 3.2-3.6 0-6.9 0-10.5 0 0-22.9 0-45.6 0-68.8zm-63.5-95.4c0 8.3-0.4 16 0.1 23.6 0.4 6.5 1 13.1 2.7 19.4 6.2 22.6 20.9 38.3 41.3 49.1 0.9 0.4 2.6 0.4 3.5-0.1 3.3-1.7 6.5-3.6 9.5-5.7 18.9-13.1 31-30.5 33.6-53.6 1.2-10.2 0.7-20.6 0.8-30.9 0-0.7-0.9-1.8-1.7-2.1-14.6-5.9-29.8-8.9-45.5-8.7-9.3 0.1-18.6 1.2-27.5 3.8-5.6 1.6-11.2 3.4-16.8 5.2zm73-16.8c-1.4-9.9-13.5-22.4-29.4-22.3-16.5 0.1-28.3 13.7-29.4 23.3 19.6-4.8 39.1-5.1 58.8-1z"/>
				<path id="&lt;Path&gt;" class="s15" d="m2015.9-700.4c-9.3-9.2-18.9-18.7-28.4-28.2 3.3-3.2 6.7-6.5 10-9.6 5.8 5.8 12 11.9 18 18 11.7-11.7 23.1-23.1 34.3-34.3 3.7 3.8 7 7.1 10.2 10.2-14.5 14.5-29.4 29.2-44.1 43.9z"/>
			</g>
		</g>
		<g id="&lt;Group&gt;">
			<g id="&lt;Group&gt;">
				<path id="&lt;Compound Path&gt;" fill-rule="evenodd" class="s16" d="m27.9 184.1c0 5.9-4 10.3-11.3 10.3h-10.6v-35.7h7.7c7.8 0 12.5 3.3 12.5 9.7 0 3.3-2.1 6.2-4.5 7.3 4 1.2 6.2 4.6 6.2 8.4zm-15.4-10.8h1.4c3.9 0 5.5-2 5.5-4.5 0-2.5-1.6-4-5.5-4h-1.4zm2.8 15c4.2 0 6.1-2 6.1-4.7 0-2.6-2.1-4.6-6.1-4.6h-2.8v9.3z"/>
				<path id="&lt;Compound Path&gt;" class="s16" d="m32.3 183.8v-12.9h6.5v12.9c0 4.1 2.5 4.9 4.4 4.9 1.9 0 4.5-1.5 4.5-5.7v-12.1h6.5v23.5h-6.5v-2.5c-1.1 1.4-2.9 2.9-6.1 2.9-5.1 0-9.3-3.4-9.3-11z"/>
				<path id="&lt;Compound Path&gt;" fill-rule="evenodd" class="s16" d="m83.3 170.9v21.8c0 9.9-5 15-12.9 15-4 0-7.6-1.4-9.7-3.2l3-5.1c1.9 1.4 3.8 2.2 6.2 2.2 4.3 0 6.9-3.3 6.9-8.1v-1.7c-1.6 1.8-4.1 3-6.9 3-6.7 0-11.7-5.3-11.7-12.2 0-6.9 5-12.1 11.7-12.1 2.8 0 5.3 1 6.9 2.8v-2.4zm-6.4 11.7c0-3.3-2.8-6.1-6.1-6.1-3.3 0-6.1 2.8-6.1 6.1 0 3.3 2.8 6.1 6.1 6.1 3.3 0 6.1-2.8 6.1-6.1z"/>
				<path id="&lt;Compound Path&gt;" class="s17" d="m130.1 186.3l3.4 4.8c-3 2.4-6.9 3.7-10.8 3.7-10.8 0-19.1-8.2-19.1-18.3 0-10 8.3-18.2 19.1-18.2 3.9 0 7.8 1.3 10.8 3.7l-3.4 4.8c-2.1-1.4-4.5-2.4-7.3-2.4-6.5 0-12.8 4.3-12.8 12.1 0 7.8 6.3 12.2 12.8 12.2 2.8 0 5.2-0.9 7.3-2.4z"/>
				<path id="&lt;Compound Path&gt;" fill-rule="evenodd" class="s17" d="m150.9 194.4v-2.5c-1.6 1.7-3.7 2.9-6.5 2.9-5.7 0-8.9-3.6-8.9-7.9 0-6.3 7.8-9 15.3-6.8-0.2-2.5-1.6-3.8-4.7-3.8-2.1 0-3.9 0.8-5.3 1.6l-2.4-5c1.9-1.2 4.6-2.4 8.5-2.4 5.7 0 10.5 3.3 10.5 12.4v11.5zm-8.9-7.5c0 1.8 1.6 2.8 3.5 2.8 2.3 0 4.9-1.8 5.4-4.8-5.1-1.6-8.9-0.6-8.9 2z"/>
				<path id="&lt;Compound Path&gt;" class="s17" d="m165.1 176.9h-4v-6h4v-7.7l6.5-2v9.7h6.5v6h-6.5v17.5h-6.5z"/>
				<path id="&lt;Compound Path&gt;" class="s17" d="m198.1 186.3l3.4 4.7c-2.1 2.4-5.2 3.8-8.4 3.8-7.9 0-12.6-5.5-12.6-12.2 0-6.7 4.7-12.1 12.6-12.1 3.2 0 6.3 1.3 8.4 3.7l-3.4 4.8c-1.2-1.4-2.7-2.5-4.9-2.5-3.5 0-6.2 2.8-6.2 6.1 0 3.3 2.7 6.1 6.2 6.1 2.2 0 3.7-1.1 4.9-2.4z"/>
				<path id="&lt;Compound Path&gt;" class="s17" d="m227.9 181.4v13h-6.5v-13c0-4-2.5-4.9-4.5-4.9-1.9 0-4.4 1.6-4.4 5.7v12.2h-6.5v-37.3h6.5v16.2c1-1.4 2.8-2.8 6-2.8 5.2 0 9.4 3.3 9.4 10.9z"/>
				<path id="&lt;Compound Path&gt;" fill-rule="evenodd" class="s17" d="m250.3 186.3l3.5 4.7q-3.9 3.7-9.3 3.8c-7.7 0-12.6-5.6-12.6-12.2 0-6.7 4.8-12.1 12.6-12.1 3.2 0 9 1.8 10.9 8.9l-14.1 8.5c0.9 0.5 1.9 0.8 3.3 0.8 2.1 0 4.3-0.9 5.7-2.4zm-11.9-3.7c0 0.4 0 0.6 0.1 0.9l9.4-5.5c-0.8-0.9-1.8-1.5-3.3-1.5-3.6 0-6.2 2.8-6.2 6.1z"/>
				<path id="&lt;Compound Path&gt;" class="s17" d="m265.1 175.4c1.7-3.1 4.3-4.6 8.9-4.9v7.7q-2.3-0.7-4.5 0c-2.3 0.6-4.4 2.8-4.4 6.8v9.4h-6.5v-23.5h6.5z"/>
			</g>
			<g id="&lt;Group&gt;">
				<g id="&lt;Group&gt;">
					<path id="&lt;Path&gt;" class="s17" d="m126.7 14.7c0 3.5-2.9 6.4-6.4 6.4-3.5 0-6.4-2.9-6.4-6.4 0-3.5 2.9-6.4 6.4-6.4 3.5 0 6.4 2.9 6.4 6.4z"/>
				</g>
				<g id="&lt;Group&gt;">
					<g id="&lt;Group&gt;">
						<g id="&lt;Group&gt;">
							<g id="&lt;Group&gt;">
								<path id="&lt;Compound Path&gt;" class="s16" d="m140 121.1c-1.3 0-2.3-0.6-3.1-1.3-12.1-10.3-19.9-19.5-25.2-29.7-2.7-5.2-4.2-10.7-4.2-15.7h2.4-2.4c0.1-14.8 11.5-27.5 27-30 10-1.7 20 1.1 27.5 7.7 6.9 6 10.7 14.6 10.4 23.5-0.1 6-2.2 11.9-6.3 18.6-5.5 8.8-12.9 17.1-22.8 25.5-1.2 1-2.3 1.4-3.3 1.4z"/>
							</g>
						</g>
					</g>
					<g id="&lt;Group&gt;">
						<g id="&lt;Group&gt;">
							<path id="&lt;Compound Path&gt;" fill-rule="evenodd" class="s17" d="m140 138.7c-1.9 0-3.4-0.8-4.6-1.8-17.6-15.1-29-28.4-36.7-43.3-3.9-7.6-6.1-15.7-6-22.9 0.1-21.6 16.6-40 39.2-43.8 14.6-2.4 29.2 1.7 40.2 11.3 10.1 8.8 15.6 21.3 15.2 34.3-0.3 8.7-3.2 17.3-9.2 27-8 12.9-18.9 25.1-33.3 37.2-1.7 1.5-3.4 2-4.8 2zm0.1-105.6q-3.5 0-7 0.6c-19 3.1-33.4 19.1-33.5 37.1-0.1 6.1 1.8 13 5.2 19.6 7.3 14.1 18.1 26.8 35.1 41.2q0.1 0.1 0.1 0.1 0.2-0.1 0.4-0.3c13.8-11.6 24.2-23.2 31.8-35.5 5.4-8.7 8-16.2 8.2-23.6 0.4-11.1-4.2-21.4-12.8-29-7.7-6.6-17.4-10.2-27.5-10.2z"/>
						</g>
					</g>
					<g id="&lt;Group&gt;">
						<path id="&lt;Path&gt;" class="s17" d="m143.4 135.3h-6.8v-42.9c-3.3-2.4-8-6.9-14.2-13.6-8.1-8.7-16.9-19.1-22.9-26.4l5.3-4.3c5.9 7.1 14.7 17.5 22.6 26 8.5 9.2 12.5 12.4 14.4 13.5l1.6 1z"/>
					</g>
					<g id="&lt;Group&gt;">
						<path id="&lt;Path&gt;" class="s17" d="m113.2 107.1l-6.1-3.1 14.7-29.1 6.2 3.1z"/>
					</g>
					<g id="&lt;Group&gt;">
						<path id="&lt;Path&gt;" class="s17" d="m143.4 135.3h-6.8v-46.7l1.6-1c1.9-1.1 5.9-4.3 14.4-13.5 7.8-8.4 16.6-18.8 22.6-26.1l5.3 4.4c-6 7.3-14.9 17.8-22.9 26.4-6.2 6.7-10.9 11.2-14.2 13.6z"/>
					</g>
					<g id="&lt;Group&gt;">
						<path id="&lt;Path&gt;" class="s17" d="m166.8 107.1l-14.8-29.1 6.2-3.1 14.7 29.1z"/>
					</g>
					<g id="&lt;Group&gt;">
						<path id="&lt;Path&gt;" class="s17" d="m137.5 73l-13.2-12.6 4.8-5 7.9 7.6 15.1-17.9 5.2 4.5z"/>
					</g>
					<g id="&lt;Group&gt;">
						<path id="&lt;Path&gt;" class="s17" d="m133.7 32.4l-15-13.7 4.7-5.1 14.9 13.7z"/>
					</g>
					<g id="&lt;Group&gt;">
						<path id="&lt;Path&gt;" class="s17" d="m146.4 32.4l-4.7-5.1 15-13.7 4.6 5.1z"/>
					</g>
				</g>
				<g id="&lt;Group&gt;">
					<path id="&lt;Path&gt;" class="s17" d="m153.4 14.7c0 3.5 2.8 6.4 6.4 6.4 3.5 0 6.4-2.9 6.4-6.4 0-3.5-2.9-6.4-6.4-6.4-3.6 0-6.4 2.9-6.4 6.4z"/>
				</g>
			</g>
		</g>
		<g id="&lt;Group&gt;">
			<g id="&lt;Group&gt;">
				<g id="&lt;Group&gt;">
					<path id="&lt;Path&gt;" class="s17" d="m1111 15.2c0 5.6-4.5 10.1-10.1 10.1-5.5 0-10.1-4.5-10.1-10.1 0-5.5 4.6-10.1 10.1-10.1 5.6 0 10.1 4.6 10.1 10.1z"/>
				</g>
				<g id="&lt;Group&gt;">
					<g id="&lt;Group&gt;">
						<g id="&lt;Group&gt;">
							<g id="&lt;Group&gt;">
								<path id="&lt;Compound Path&gt;" class="s16" d="m1132 183c-2 0-3.7-1-4.9-2-19.1-16.3-31.4-30.7-39.8-46.9-4.2-8.1-6.5-16.9-6.5-24.7h3.7-3.7c0.2-23.4 18-43.3 42.5-47.4 15.7-2.6 31.6 1.9 43.4 12.2 10.9 9.5 16.9 23.1 16.5 37.1-0.3 9.4-3.5 18.7-10.1 29.3-8.6 13.9-20.3 27-35.9 40.2-1.9 1.6-3.7 2.2-5.2 2.2z"/>
							</g>
						</g>
					</g>
					<g id="&lt;Group&gt;">
						<g id="&lt;Group&gt;">
							<path id="&lt;Compound Path&gt;" fill-rule="evenodd" class="s17" d="m1131.9 210.9c-2.8 0-5.3-1.4-7.1-3-27.9-23.7-45.7-44.8-58-68.3-6.1-11.9-9.5-24.6-9.4-36 0.2-34.1 26.2-63.2 61.9-69.1 23-3.8 46 2.7 63.3 17.8 15.9 13.8 24.6 33.6 24 54.1-0.4 13.7-5.1 27.3-14.6 42.7-12.6 20.2-29.7 39.4-52.4 58.5-2.8 2.4-5.4 3.3-7.7 3.3zm0.3-166.6q-5.5 0-11.1 0.9c-30 5-52.7 30.1-52.9 58.5 0 9.6 2.9 20.6 8.3 30.9 11.5 22.2 28.6 42.3 55.4 65.1q0 0 0.1 0.1 0.2-0.2 0.6-0.5c21.8-18.3 38.2-36.7 50.2-56 8.5-13.7 12.6-25.5 13-37.2 0.5-17.6-6.7-33.8-20.3-45.7-12.1-10.5-27.4-16.1-43.3-16.1z"/>
						</g>
					</g>
					<g id="&lt;Group&gt;">
						<path id="&lt;Path&gt;" class="s17" d="m1137.4 205.4h-10.8v-67.6c-5.2-3.8-12.6-10.9-22.4-21.5-12.7-13.6-26.6-30.1-36.1-41.5l8.4-6.9c9.4 11.3 23.2 27.6 35.6 41 13.4 14.5 19.8 19.6 22.7 21.4l2.6 1.6z"/>
					</g>
					<g id="&lt;Group&gt;">
						<path id="&lt;Path&gt;" class="s17" d="m1089.8 161l-9.7-5 23.2-45.8 9.7 4.9z"/>
					</g>
					<g id="&lt;Group&gt;">
						<path id="&lt;Path&gt;" class="s17" d="m1137.4 205.4h-10.8v-73.5l2.6-1.6c3-1.8 9.3-6.9 22.7-21.4 12.3-13.3 26.2-29.7 35.7-41.1l8.3 6.9c-9.6 11.6-23.6 28.1-36.1 41.6-9.8 10.6-17.2 17.7-22.4 21.5z"/>
					</g>
					<g id="&lt;Group&gt;">
						<path id="&lt;Path&gt;" class="s17" d="m1174.2 161l-23.2-45.9 9.7-4.9 23.2 45.9z"/>
					</g>
					<g id="&lt;Group&gt;">
						<path id="&lt;Path&gt;" class="s17" d="m1128.1 107.2l-20.8-19.9 7.5-7.8 12.5 11.9 23.7-28.2 8.3 7z"/>
					</g>
					<g id="&lt;Group&gt;">
						<path id="&lt;Path&gt;" class="s17" d="m1122 43.1l-23.5-21.6 7.3-8 23.6 21.6z"/>
					</g>
					<g id="&lt;Group&gt;">
						<path id="&lt;Path&gt;" class="s17" d="m1142.1 43.1l-7.4-8 23.6-21.6 7.3 8z"/>
					</g>
				</g>
				<g id="&lt;Group&gt;">
					<path id="&lt;Path&gt;" class="s17" d="m1153.1 15.2c0 5.6 4.5 10.1 10.1 10.1 5.5 0 10.1-4.5 10.1-10.1 0-5.5-4.6-10.1-10.1-10.1-5.6 0-10.1 4.6-10.1 10.1z"/>
				</g>
			</g>
		</g>
	</g>
</svg>