<svg version="1.2" xmlns="http://www.w3.org/2000/svg" viewBox="0 0 406 236" width="406" height="236">
    <title>Bug Catcher-ai</title>
    <style>
        .s0 { fill: #64b9e3 }
        .s1 { fill: #204e7a }
    </style>
    <g id="_Artboards_">
    </g>
    <g id="Layer 1">
        <g id="&lt;Group&gt;">
            <g id="&lt;Group&gt;">
                <path id="&lt;Compound Path&gt;" fill-rule="evenodd" class="s0"
                      d="m12.3 172.1v-4.2h20.2q16 0 16 11.8 0 7.8-8.5 10.1 9.7 2 9.7 11 0 12.7-17.5 12.7h-14.8v-39.5q0-1.9-2-1.9zm13.9 2.2v12.6h4.3q9 0 9-6.3 0-6.3-8.5-6.3zm0 18.9v13.6h4.8q9.6 0 9.6-6.9 0-6.7-8.9-6.7z"/>
                <path id="&lt;Compound Path&gt;" class="s0"
                      d="m54 184.5v-4.3h8.3q4.2 0 4.2 3.8v9.2q0 6.9 0.4 8.7 1.3 4.9 6.1 4.9 7.9 0 7.9-11.8v-14.8h8.5v33.3h-7.8v-6.4q-3.7 6.8-11.8 6.8-11.9 0-11.9-14.3v-12.3q0-1.9-1.1-2.4-0.8-0.4-2.8-0.4z"/>
                <path id="&lt;Compound Path&gt;" fill-rule="evenodd" class="s0"
                      d="m123.6 185.9v-5.7h8v29.2q0 18.4-18.5 18.4-6 0-11.7-2.1l0.5-6.9q5.4 2.7 10.4 2.7 5.1 0 8-2.9 2.9-2.8 2.9-7.8v-3.6q-4.3 6.1-11 6.1-6.5 0-10.4-4.6-4-4.6-4-12.2 0-7.7 4-12.4 4-4.8 10.3-4.8 7.4 0 11.5 6.6zm-8.9-0.1q-3.5 0-5.7 2.8-2.2 2.8-2.2 7.5 0 4.9 2.2 7.8 2.2 2.8 5.8 2.8 3.5 0 5.8-2.8 2.3-2.9 2.3-7.4 0-5-2.2-7.8-2.2-2.9-6-2.9z"/>
                <path id="&lt;Compound Path&gt;" class="s1"
                      d="m195.4 169.3l-0.5 7.3q-7.1-2.7-10.6-2.7-7.5 0-12 4.7-4.5 4.7-4.5 12.3 0 7.3 4.6 11.9 4.6 4.5 12.3 4.5 2.1 0 5.1-0.9 2.6-0.8 5.2-1.7l0.8 7.2q-3 0.8-5.9 1.7-3.5 0.8-6 0.8-12 0-18.7-6.5-6.6-6.3-6.6-17 0-10.7 6.7-17.3 6.8-6.7 18.1-6.7 2.1 0 4.4 0.5 1.7 0.2 4 1 3.2 0.8 3.6 0.9z"/>
                <path id="&lt;Compound Path&gt;" fill-rule="evenodd" class="s1"
                      d="m230.3 203.7q0 3.6 0.3 4.2 0.6 1.2 3.6 1.2v4.4h-7.4q-4 0-4.1-3.9l-0.1-1.5q-4.3 6.2-11.3 6.2-4.8 0-8-2.9-3.1-2.8-3.1-7.6 0-7.5 7.9-9.9 4.1-1.2 14-1.2v-0.4q0-7.2-8.2-7.2-4.5 0-9.5 2.7l-0.2-6.1q5.9-2.4 11.7-2.4 7.5 0 10.9 3.6 2.8 2.9 3.4 9 0.1 1.5 0.1 11.8zm-8.2-4.4v-1.7h-3q-10.5 0-10.5 5.7 0 2.3 1.5 3.7 1.6 1.3 3.9 1.3 3.7 0 5.9-2.7 2.2-2.5 2.2-6.3z"/>
                <path id="&lt;Compound Path&gt;" class="s1"
                      d="m251 169.3v10.9h8.1v6.3h-8.1v14.5q0 3.7 1.2 5.4 1.1 1.6 3.8 1.6 1.4 0 3.3-0.6l0.1 6.1q-2.9 0.7-5.9 0.7-6 0-8.5-3-2.5-2.9-2.5-9.6v-15.1h-6.6v-6.3h7v-8.1z"/>
                <path id="&lt;Compound Path&gt;" class="s1"
                      d="m290.7 181l-0.6 6.7q-4.4-1.7-6.7-1.7-4.9 0-7.8 3-2.9 3-2.9 7.7 0 4.8 2.9 7.9 2.9 3 7.7 3 3.2 0 7.3-2.2l0.3 6.9q-5.9 2-9.3 2-8.2 0-13-4.9-4.8-4.8-4.8-12.9 0-7.3 4.9-12.3 5-4.9 12.8-4.9 2.2 0 9.2 1.7z"/>
                <path id="&lt;Compound Path&gt;" class="s1"
                      d="m294.3 168.7v-4.3h8.3q4.1 0 4.1 3.8v17q3.6-5.9 11.1-5.9 11.9 0 11.9 14.3v19.9h-8.6v-18q0-9-6.5-9-4 0-6.1 3.3-1.8 2.8-1.8 7.1v16.6h-8.5v-42.1q0-1.8-1.2-2.4-0.8-0.4-2.7-0.3z"/>
                <path id="&lt;Compound Path&gt;" fill-rule="evenodd" class="s1"
                      d="m368.4 196.5v2.6h-23.4q0.3 4.2 3.3 6.6 2.9 2.4 7.6 2.4 5.2 0 9.8-2.3v6.5q-4.9 2-11.3 2-8.3 0-13-4.8-4.7-4.8-4.7-13.2 0-7.6 4.5-12.3 4.6-4.7 11.9-4.7 7.3 0 11.3 4.5 4 4.5 4 12.7zm-7.7-2.7q-0.3-4.2-2.4-6.6-2-2.3-5.2-2.3-3.3 0-5.5 2.3-2.1 2.4-2.6 6.6z"/>
                <path id="&lt;Compound Path&gt;" class="s1"
                      d="m395.6 179.7l-0.3 7.7q-1.4-0.5-3-0.5-8.6 0-8.6 11v15.6h-8.6v-26.2q0-1.9-1.1-2.4-0.7-0.4-2.7-0.4v-4.3h7.4q2.9 0 3.7 2.1 0.4 1 0.4 4.5 3.2-7.4 9.9-7.4 1.3 0 2.9 0.3z"/>
            </g>
            <g id="&lt;Group&gt;">
                <g id="&lt;Group&gt;">
                    <path id="&lt;Path&gt;" class="s1"
                          d="m185.1 111.3c4.1 1 7.9 2.2 11.9 3 19.9 4.1 41.4-8.6 48.2-28.4 2.8-8.3 3.7-16.7 1.2-25.2-0.8-2.6 0.4-4.7 2.7-5.2 2-0.4 3.8 1.1 4.4 3.9 2.3 11.1 1.8 21.9-2.9 32.2-7.3 16-19.5 25.8-36.6 29.5-7.8 1.6-15.6 1.4-23.3-0.8-1.7-0.5-2.6-0.2-3.5 1.5-2.4 4.4-5 8.8-7.6 13.1-3.2 5.3-8.9 6.7-14.4 3.6-5.4-3.1-7.2-8.7-4.2-14.1 2.3-4.2 4.7-8.4 7.2-12.5 1.3-2 1.3-3.3-0.5-5.1-9.7-9.6-14.4-21.5-14.6-34.8-0.3-22.8 14.1-42.6 35.8-49.2 2.5-0.8 5.1-1.3 7.8-1.7 2.1-0.4 3.6 0.8 3.9 2.9 0.4 2.1-0.9 3.5-3 3.9-7.3 1.4-14.2 4-20.1 8.7-12 9.5-17.8 21.9-17 37.4 0.7 13.1 6.5 23.6 16.7 31.7 1.6 1.3 1.6 2.2 0.6 3.9-3.4 5.8-6.7 11.6-10.1 17.5-1.5 2.6-1.3 3.7 1.2 5.2 2.3 1.5 3.8 0.4 4.9-1.6q5-8.7 10-17.3c0.4-0.8 0.9-1.5 1.3-2.1z"/>
                    <path id="&lt;Compound Path&gt;" fill-rule="evenodd" class="s0"
                          d="m204.8 108.1c-18.1-0.5-33.3-12.3-36.6-29.6-3.3-17.1 4.5-31.5 18.8-39.8 3.2-1.9 6.4-0.4 6.6 3.3 0.4 5.8 2.4 10.8 5.9 15.2 6.7 8.4 15.5 12.2 26.2 10.8 2.9-0.3 5.8-1.1 8.5-2 3.7-1.2 6.5 0.3 6.5 4.1-0.1 8.3-2.1 16-7.1 22.8-5.4 7.2-12.5 11.9-21.2 14-2.7 0.6-5.6 0.9-7.6 1.2zm-11.8-10.2c19 8.6 39-7 39.4-23.1-1.7 0.3-3.3 0.8-5 0.9-6.3 0.5-12.5 0.3-18.4-2.2-0.6-0.3-2 0.3-2.3 0.9-4.6 7.7-9.1 15.5-13.7 23.5zm-6.2-49.6c-0.5 0.1-0.7 0-0.8 0.1q-0.4 0.2-0.7 0.5c-9.3 8.5-12.3 18.9-9 31 1.3 5.1 4.3 9.5 8.3 13.1 1 0.8 1.8 1.3 2.6-0.2 4.5-7.8 9-15.6 13.7-23.7-7-5.4-11.8-12.3-14.1-20.8z"/>
                    <path id="&lt;Path&gt;" class="s0"
                          d="m211 28.7c-0.1-2.8-0.8-7-4.6-10.2-1.6-1.3-1.9-3.1-0.4-4.8 1.5-1.8 3.4-1.8 5.2-0.7 4 2.6 5.7 6.6 6.6 11 0.9 4 1.6 8 0.2 12-0.2 0.5 0.6 1.5 1.1 1.9 2 1.3 4.1 2.6 6.2 3.6 0.7 0.3 2 0.1 2.6-0.4 5.6-4.4 11.9-6.9 19.1-6.4 2.9 0.2 5.7 1.9 6 3.9 0.4 3.3-2.1 5.3-5.2 4.1-3.6-1.4-12.8 1-15 4.1-0.3 0.4-0.2 1.4 0.1 1.9 0.7 1.2 1.6 2.3 2.3 3.5 1.5 2.5 1.1 4.6-1.1 5.9-1.8 1.2-3.7 0.6-5.3-1.9-3.2-5.1-7.4-9.3-13.1-11.4-3.4-1.3-7-1.9-10.6-2.4-2.7-0.4-4.9-1.8-4.9-4 0-2.3 1.9-3.7 4.9-3.6q0.8 0 1.6 0c4.3 0 4.3 0 4.3-6.1z"/>
                </g>
            </g>
        </g>
    </g>
</svg>