<svg version="1.2" xmlns="http://www.w3.org/2000/svg" viewBox="0 0 517 141" width="517" height="141">
    <title>Bug Catcher-ai</title>
    <style>
        .s0 { fill: #64b9e3 }
        .s1 { fill: #204e7a }
    </style>
    <g id="_Artboards_">
    </g>
    <g id="Layer 1">
        <g id="&lt;Group&gt;">
            <g id="&lt;Group&gt;">
                <path id="&lt;Compound Path&gt;" fill-rule="evenodd" class="s0"
                      d="m128.6 56.9v-4.2h20.1q16 0 16 11.7 0 7.8-8.5 10 9.7 2.1 9.7 11 0 12.6-17.5 12.6h-14.7v-39.2q0-1.9-2-1.9zm13.9 2.2v12.5h4.2q9 0 9-6.2 0-6.3-8.5-6.3zm0 18.8v13.5h4.8q9.6 0 9.6-6.8 0-6.7-8.9-6.7z"/>
                <path id="&lt;Compound Path&gt;" class="s0"
                      d="m170.1 69.2v-4.3h8.3q4.2 0 4.2 3.8v9.2q0 6.9 0.4 8.6 1.3 4.9 6.1 4.9 7.8 0 7.8-11.8v-14.7h8.5v33.1h-7.7v-6.3q-3.8 6.8-11.8 6.8-11.9 0-11.9-14.2v-12.4q0-1.8-1.1-2.3-0.8-0.4-2.8-0.4z"/>
                <path id="&lt;Compound Path&gt;" fill-rule="evenodd" class="s0"
                      d="m239.5 70.6v-5.7h7.9v29.1q0 18.3-18.4 18.3-6 0-11.7-2.1l0.6-6.9q5.3 2.7 10.3 2.7 5.1 0 8-2.8 2.9-2.8 2.9-7.8v-3.6q-4.4 6.1-11 6.1-6.5 0-10.4-4.6-4-4.5-4-12.1 0-7.7 4-12.4 4-4.8 10.3-4.8 7.4 0 11.5 6.6zm-8.9-0.1q-3.5 0-5.7 2.8-2.1 2.8-2.1 7.5 0 4.9 2.1 7.7 2.2 2.8 5.8 2.8 3.4 0 5.8-2.8 2.3-2.8 2.3-7.3 0-5-2.3-7.8-2.2-2.9-5.9-2.9z"/>
                <path id="&lt;Compound Path&gt;" class="s1"
                      d="m311 54.1l-0.6 7.2q-7-2.6-10.5-2.6-7.5 0-11.9 4.6-4.5 4.7-4.5 12.3 0 7.2 4.6 11.8 4.5 4.6 12.2 4.6 2.1 0 5.1-1 2.6-0.8 5.1-1.7l0.8 7.2q-2.9 0.8-5.9 1.7-3.4 0.7-5.9 0.7-11.9 0-18.6-6.4-6.6-6.3-6.6-16.9 0-10.6 6.7-17.3 6.7-6.6 18-6.6 2.1 0 4.4 0.5 1.6 0.2 4 0.9 3.1 0.9 3.6 1z"/>
                <path id="&lt;Compound Path&gt;" fill-rule="evenodd" class="s1"
                      d="m345.7 88.3q0 3.6 0.3 4.2 0.6 1.2 3.6 1.2v4.3h-7.4q-4 0-4.1-3.8l-0.1-1.5q-4.2 6.2-11.2 6.2-4.8 0-8-2.9-3.1-2.8-3.1-7.6 0-7.5 7.9-9.8 4.1-1.2 13.9-1.2v-0.5q0-7.1-8.1-7.1-4.5 0-9.5 2.7l-0.2-6.1q5.9-2.4 11.7-2.4 7.4 0 10.8 3.6 2.8 2.9 3.4 9 0.1 1.4 0.1 11.7zm-8.2-4.3v-1.8h-3q-10.4 0-10.4 5.8 0 2.3 1.5 3.6 1.6 1.3 3.9 1.3 3.6 0 5.9-2.7 2.1-2.5 2.1-6.2z"/>
                <path id="&lt;Compound Path&gt;" class="s1"
                      d="m366.3 54.1v10.8h8.1v6.3h-8.1v14.5q0 3.6 1.2 5.3 1.1 1.6 3.8 1.6 1.4 0 3.3-0.6l0.1 6q-2.9 0.8-5.9 0.8-5.9 0-8.4-3-2.5-2.9-2.5-9.6v-15h-6.6v-6.3h6.9v-8z"/>
                <path id="&lt;Compound Path&gt;" class="s1"
                      d="m405.9 65.7l-0.7 6.7q-4.3-1.7-6.6-1.7-4.9 0-7.8 3-2.9 3-2.9 7.7 0 4.7 2.9 7.8 2.9 3 7.6 3 3.2 0 7.4-2.1l0.3 6.8q-6 2-9.3 2-8.2 0-13-4.9-4.8-4.8-4.8-12.8 0-7.3 5-12.3 4.9-4.9 12.7-4.9 2.2 0 9.2 1.7z"/>
                <path id="&lt;Compound Path&gt;" class="s1"
                      d="m409.5 53.5v-4.4h8.2q4.1 0 4.1 3.8v17q3.6-5.9 11.1-5.9 11.7 0 11.7 14.3v19.7h-8.4v-17.9q0-8.9-6.6-8.9-4 0-6 3.3-1.8 2.8-1.8 7.1v16.4h-8.5v-41.8q0-1.8-1.1-2.4-0.8-0.4-2.7-0.3z"/>
                <path id="&lt;Compound Path&gt;" fill-rule="evenodd" class="s1"
                      d="m483.3 81.1v2.7h-23.4q0.4 4.1 3.3 6.5 2.9 2.4 7.6 2.4 5.2 0 9.7-2.3v6.5q-4.8 2-11.2 2-8.3 0-13-4.8-4.7-4.8-4.7-13.2 0-7.5 4.6-12.2 4.5-4.7 11.8-4.7 7.2 0 11.3 4.5 4 4.5 4 12.6zm-7.7-2.6q-0.4-4.3-2.4-6.6-2-2.3-5.2-2.3-3.3 0-5.4 2.3-2.2 2.3-2.7 6.6z"/>
                <path id="&lt;Compound Path&gt;" class="s1"
                      d="m510.3 64.4l-0.3 7.7q-1.4-0.5-2.9-0.5-8.7 0-8.7 10.9v15.5h-8.5v-26q0-1.9-1.1-2.4-0.7-0.4-2.7-0.4v-4.3h7.4q2.9 0 3.7 2.1 0.4 1 0.4 4.5 3.1-7.4 9.8-7.4 1.3 0 2.9 0.3z"/>
            </g>
            <g id="&lt;Group&gt;">
                <g id="&lt;Group&gt;">
                    <path id="&lt;Path&gt;" class="s1"
                          d="m40.3 106.4c4.1 1.1 8.1 2.2 12 3 20.1 4.2 41.9-8.7 48.7-28.6 2.9-8.4 3.8-16.9 1.2-25.5-0.7-2.6 0.5-4.7 2.8-5.2 2-0.5 3.9 1.1 4.5 3.9 2.3 11.2 1.7 22.1-3 32.5-7.3 16.2-19.7 26.1-37 29.8-7.9 1.7-15.7 1.5-23.5-0.8-1.7-0.5-2.7-0.2-3.6 1.5-2.4 4.5-5 8.9-7.6 13.3-3.2 5.3-9 6.8-14.5 3.7-5.5-3.2-7.3-8.9-4.3-14.4 2.3-4.2 4.7-8.4 7.3-12.5 1.3-2.1 1.3-3.4-0.6-5.2-9.7-9.7-14.5-21.7-14.7-35.2-0.3-23 14.3-43 36.1-49.7 2.6-0.8 5.3-1.2 7.9-1.7 2.2-0.4 3.7 0.8 4 2.9 0.4 2.2-0.9 3.6-3 4-7.5 1.4-14.4 4-20.3 8.7-12.2 9.7-18 22.2-17.2 37.8 0.7 13.3 6.6 23.9 16.9 32.1 1.6 1.3 1.6 2.2 0.6 3.9-3.5 5.8-6.9 11.8-10.3 17.7-1.5 2.6-1.2 3.7 1.2 5.3 2.4 1.5 3.9 0.3 5-1.7q5.1-8.7 10.1-17.4c0.4-0.8 0.9-1.6 1.3-2.2z"/>
                    <path id="&lt;Compound Path&gt;" fill-rule="evenodd" class="s0"
                          d="m60.2 103.2c-18.3-0.5-33.6-12.5-36.9-29.9-3.4-17.3 4.6-31.8 19-40.2 3.2-1.9 6.4-0.4 6.6 3.4 0.4 5.8 2.4 10.9 6 15.3 6.8 8.5 15.7 12.3 26.5 10.9 2.9-0.3 5.8-1.2 8.6-2.1 3.6-1.2 6.5 0.4 6.5 4.2-0.1 8.4-2.1 16.1-7.2 23-5.4 7.3-12.6 12-21.4 14.2-2.7 0.6-5.6 0.9-7.7 1.2zm-11.9-10.3c19.2 8.7 39.4-7.1 39.9-23.4-1.8 0.4-3.4 0.9-5.1 1-6.4 0.5-12.6 0.3-18.7-2.3-0.5-0.2-1.9 0.4-2.3 0.9-4.6 7.9-9.2 15.8-13.8 23.8zm-6.3-50.1c-0.4 0-0.6 0-0.8 0.1q-0.3 0.2-0.7 0.5c-9.3 8.6-12.4 19.1-9.1 31.3 1.4 5.2 4.4 9.6 8.4 13.2 1 0.9 1.8 1.3 2.7-0.2 4.5-7.9 9.1-15.7 13.8-23.9-7.1-5.5-11.9-12.5-14.3-21z"/>
                    <path id="&lt;Path&gt;" class="s0"
                          d="m66.5 23c-0.1-2.8-0.8-7.1-4.6-10.3-1.7-1.3-2-3.1-0.4-4.9 1.5-1.8 3.4-1.8 5.2-0.6 4.1 2.5 5.8 6.6 6.7 11.1 0.8 4 1.6 8 0.2 12.1-0.2 0.5 0.5 1.5 1.1 1.9 2 1.3 4.1 2.6 6.3 3.6 0.7 0.3 2 0.1 2.6-0.4 5.6-4.5 12-6.9 19.3-6.5 2.9 0.2 5.7 1.9 6 4 0.5 3.3-2.1 5.3-5.2 4.1-3.7-1.4-13 1.1-15.2 4.2-0.3 0.4-0.1 1.4 0.2 1.9 0.6 1.3 1.5 2.3 2.3 3.5 1.5 2.6 1.1 4.7-1.2 6-1.8 1.2-3.7 0.5-5.3-2-3.3-5.1-7.5-9.3-13.2-11.5-3.5-1.2-7.2-1.9-10.8-2.4-2.7-0.4-4.9-1.8-4.9-4 0-2.3 1.9-3.7 4.9-3.7q0.9 0 1.7 0c4.3 0.1 4.3 0.1 4.3-6.1z"/>
                </g>
            </g>
        </g>
    </g>
</svg>