<svg version="1.2" xmlns="http://www.w3.org/2000/svg" viewBox="0 0 301 327" width="301" height="327">
    <title>Bug Catcher-ai</title>
    <style>
        .s0 { fill: #23a761 }
    </style>
    <g id="_Artboards_">
    </g>
    <g id="Layer 1">
        <g id="&lt;Group&gt;">
            <g id="&lt;Group&gt;">
                <path id="&lt;Path&gt;" class="s0"
                      d="m106.3 247.2c9.3 2.3 18 4.9 26.9 6.8 44.9 9.2 93.5-19.5 108.9-64.1 6.4-18.7 8.3-37.6 2.6-56.9-1.7-5.9 1-10.6 6.1-11.8 4.5-0.9 8.7 2.6 10.1 8.9 5.2 24.9 4 49.3-6.6 72.7-16.4 36-44 58.3-82.8 66.5-17.6 3.7-35.1 3.3-52.4-1.7-3.8-1.1-6-0.4-8 3.3-5.5 10-11.3 19.9-17.2 29.7-7.1 12-20.1 15.1-32.3 8.2-12.3-7.1-16.3-19.8-9.6-32 5.2-9.5 10.5-19 16.3-28.1 3-4.7 2.9-7.6-1.2-11.7-21.8-21.6-32.6-48.4-33-78.6-0.6-51.3 31.9-96 80.8-111 5.7-1.7 11.7-2.8 17.6-3.8 4.9-0.8 8.2 1.8 9 6.5 0.7 4.8-2.1 7.9-6.9 8.8-16.6 3.1-32 9-45.4 19.6-27.1 21.6-40.2 49.6-38.3 84.4 1.6 29.7 14.6 53.4 37.7 71.7 3.5 2.9 3.6 5.1 1.4 8.8-7.9 13-15.3 26.3-22.9 39.5-3.5 5.9-2.8 8.3 2.6 11.8 5.4 3.4 8.6 0.8 11.2-3.7q11.2-19.5 22.5-39c1-1.8 2.1-3.5 2.9-4.8z"/>
                <path id="&lt;Compound Path&gt;" fill-rule="evenodd" class="s0"
                      d="m150.8 240.1c-40.8-1.2-75.1-28-82.6-66.8-7.4-38.8 10.3-71.3 42.5-90 7.2-4.2 14.4-0.9 14.9 7.6 0.9 12.9 5.4 24.3 13.3 34.3 15.2 18.9 35 27.3 59.2 24.4 6.5-0.8 13-2.7 19.2-4.7 8.2-2.7 14.7 0.8 14.6 9.3-0.2 18.7-4.7 36.1-16 51.4-12.2 16.4-28.1 26.9-47.8 31.7-6.2 1.5-12.6 2.1-17.3 2.8zm-26.6-23.1c42.9 19.4 88-15.9 89.1-52.2-3.9 0.8-7.6 1.9-11.4 2.1-14.2 1-28.2 0.7-41.6-5-1.3-0.6-4.4 0.7-5.2 2-10.4 17.5-20.5 35.1-30.9 53.1zm-14-112c-1 0.1-1.5 0.1-1.8 0.2-0.6 0.3-1.1 0.7-1.5 1.1-21 19.2-27.9 42.7-20.5 70 3.2 11.6 9.8 21.5 18.9 29.6 2.2 1.9 4 2.9 5.9-0.5 10.1-17.6 20.3-35.2 30.9-53.4-15.9-12.3-26.7-27.9-31.9-47z"/>
                <path id="&lt;Path&gt;" class="s0"
                      d="m164.8 60.8c-0.2-6.3-1.7-15.9-10.3-23-3.7-3.1-4.3-7.1-0.9-11 3.5-4.1 7.7-4 11.7-1.4 9.1 5.7 12.9 14.8 15 24.8 1.9 9 3.5 18 0.4 27.1-0.4 1.1 1.3 3.4 2.6 4.2 4.5 3 9.1 5.8 13.9 8.1 1.5 0.7 4.5 0.3 5.8-0.8 12.7-10.1 26.8-15.5 43.2-14.5 6.6 0.3 12.8 4.2 13.5 8.9 1 7.3-4.8 11.8-11.7 9.2-8.2-3.2-29 2.3-33.9 9.2-0.7 1-0.4 3.2 0.3 4.4 1.5 2.7 3.5 5.1 5.1 7.8 3.4 5.7 2.5 10.4-2.5 13.4-4.1 2.6-8.2 1.2-11.8-4.5-7.4-11.4-16.8-20.9-29.7-25.7-7.6-2.8-15.9-4.2-24-5.4-6.1-0.9-11-4.1-11-8.9 0.1-5.2 4.2-8.3 11-8.3q1.9 0 3.8 0c9.6 0.2 9.6 0.2 9.5-13.6z"/>
            </g>
        </g>
    </g>
</svg>