<svg version="1.2" xmlns="http://www.w3.org/2000/svg" viewBox="0 0 293 283" width="293" height="283">
    <title>Bug Catcher-ai</title>
    <style>
        .s14 {
            fill: #204e7a
        }
    </style>
    <g id="_Artboards_">
    </g>
    <g id="Layer 1">
        <g id="&lt;Group&gt;">
            <g id="&lt;Group&gt;">
                <path id="&lt;Compound Path&gt;" fill-rule="evenodd" class="s14"
                      d="m158.8 175.9c-3.4 1.9-6.1 3.8-9.1 5.2-2.4 1.1-3.2 2.6-3.2 5.3 0.1 29.5 0 58.9 0 88.4 0 1 0 2 0 3.2-3.6 0-7 0-10.8 0q0-1.3 0-2.7c0-29.8 0-59.6 0.1-89.3 0-2.4-0.7-3.6-2.7-4.6-3.9-2.1-7.5-4.5-11.7-7 0 23.6 0 46.9 0 70.3-3.8 0-7.1 0-10.8 0 0-26.5 0-52.8 0-79.6-2.7 1.3-5 2.3-7.3 3.4-4.2 2-8.3 4.2-12.5 6.1-1.4 0.7-2 1.6-1.9 3.2 0 6 0 12.1 0 18.1 0 0.8 0 1.7 0 2.6-10 0-19.7 0-29.6 0 0-3.4 0-6.6 0-10.2 6.1 0 12.3 0 18.7 0 0.1-1.3 0.2-2.2 0.2-3.1 0-4.5 0.2-9 0-13.5-0.1-2.2 0.6-3.3 2.7-4.2 6.7-3.2 13.4-6.5 20.1-9.8 0.6-0.3 1-0.6 1.8-1.1-1.8-2.5-3.4-5.1-5.2-7.4-0.5-0.6-1.7-0.6-2.6-0.6q-25.9-0.1-51.9-0.1c-1.1 0-2.2 0-3.5 0 0-3.6 0-6.9 0-10.6 17.3 0 34.5 0 51.8 0-1.7-5.5-3.4-10.6-5.1-16-26.1 0-52.2 0-78.7 0 0-3.6 0-6.9 0-10.6 25.7 0 51.3 0 77 0 0-5.3 0-10.2 0-15.5-1.1 0-2-0.2-2.9-0.2-10.8 0-21.6 0.1-32.3 0-1.8 0-3.1 0.4-4.4 1.7-3.5 3.3-9.3 3.7-13.2 1.3-4.4-2.7-6.4-7.7-5-12.7 1.2-4.5 5.6-8.2 10.4-8.2 4.2 0 7.7 1.7 9.9 5.5 0.7 1.2 1.5 1.7 2.9 1.7 10.7-0.1 21.5 0 32.2-0.1 0.7 0 1.4-0.1 2.3-0.2 0-1.8 0.2-3.4 0-5-0.2-0.7-1.1-1.4-1.9-1.8-6.1-3-12.2-6-18.3-8.9-1.5-0.7-2.1-1.6-2-3.2 0.1-5.5 0-11 0-16.8-6.3 0-12.3 0-18.6 0 0-3.7 0-7.1 0-10.6 9.7 0 19.3 0 29.2 0 0.1 0.8 0.2 1.7 0.2 2.6 0 6 0.1 11.9-0.1 17.8 0 1.7 0.5 2.7 2.1 3.4 5.3 2.5 10.5 5.2 15.7 7.7 2.6 1.2 6.5-1 7-3.7 3-16 12.1-27.1 27.2-33.1q0.9-0.3 1.7-0.6c0.1-0.1 0.1-0.2 0.1-0.2-5.6-10.3-26.1-20.8-45.6-6.4-2.2-2.7-4.4-5.4-6.7-8.2 5.2-4.3 10.9-7.1 17.1-8.5 13-2.8 25-0.4 35.7 7.7 4.4 3.3 7.9 7.3 10.8 12 1.5 2.6 3.1 2.6 4.7 0.1 9.4-14.7 22.8-21.7 40.3-20.7 7.8 0.5 14.9 3.2 21.3 7.8q0.7 0.5 1.4 1.1c0.1 0.1 0.1 0.3 0.3 0.8-2 2.5-4.1 5.2-6.4 8-9.4-7.1-19.7-9.2-30.8-5.3-6.4 2.3-11.8 6.2-15.7 12.3 15.3 6.4 24.5 17.5 27.4 34 2.9 1.1 6 2.3 9 3.3 0.7 0.3 1.6 0 2.2-0.3 5.4-2.6 10.8-5.4 16.3-7.9 1.4-0.7 1.8-1.6 1.7-3 0-6 0-11.9 0-17.8 0-1 0-1.9 0-2.9 10 0 19.7 0 29.6 0 0 3.5 0 6.8 0 10.4-6.2 0-12.4 0-18.9 0 0 1.4 0 2.5 0 3.5 0 4.5-0.1 9 0 13.5 0 1.6-0.4 2.5-1.9 3.2-5.8 2.8-11.6 5.7-17.4 8.5-3.8 1.8-4.3 2.8-3 7.5 14.9 0 29.8 0 45 0 0 3.6 0 7 0 10.7-15.2 0-30.1 0-45.5 0 0 5.2 0 10.1 0 15.4 0.6 0 1.5 0.1 2.4 0.1 20.7 0 41.5 0 62.2 0.1 1.8 0 2.8-0.6 3.8-2.1 2.9-4.4 7.5-5.9 12.6-4.6 4.2 1.2 7.5 5.5 7.9 10.3 0.3 4.5-2.6 9.1-7.2 10.9-4.3 1.7-8.2 0.7-11.8-2.2-1-0.8-2.4-1.5-3.6-1.5-22-0.1-44.1-0.1-66.1-0.1-0.7 0-1.3 0.1-2 0.2-1.7 5.2-3.3 10.3-5.1 15.8 17.5 0 34.8 0 52.4 0 0 3.6 0 6.9 0 10.4-1.2 0.1-2.3 0.2-3.4 0.2-17.4 0-34.9 0.1-52.4 0-1.7 0-2.9 0.4-3.8 1.9-1.2 2-2.6 3.8-4.1 6 1.4 0.7 2.6 1.4 3.9 2.1 6.4 3.1 12.8 6.3 19.2 9.3 1.7 0.8 2.3 1.7 2.2 3.5-0.1 4.6 0 9.2 0 13.7 0 1 0.1 1.9 0.2 3.1 2.9 0 5.5 0.1 8.1-0.1 0.9-0.1 1.7-1.1 2.3-1.8 4.5-4.9 11.1-5.6 15.9-1.5 5 4.2 5.3 11.6 0.8 16.3-4.5 4.6-12.2 4.6-16.3-0.2-1.4-1.7-2.7-2.3-4.8-2.2-5.6 0.1-11.2 0-17 0 0-1-0.1-1.8-0.1-2.7 0-5.9-0.1-11.8 0-17.8 0.1-1.7-0.4-2.8-2.1-3.6-6.6-3.1-13.1-6.4-19.7-9.6-2.1 1-2.8 2.5-2.8 4.8 0 23.9 0 47.9 0 71.8 0 1 0 2 0 3.2-3.6 0-6.9 0-10.5 0 0-22.9 0-45.6 0-68.8zm-63.5-95.4c0 8.3-0.4 16 0.1 23.6 0.4 6.5 1 13.1 2.7 19.4 6.2 22.6 20.9 38.3 41.3 49.1 0.9 0.4 2.6 0.4 3.5-0.1 3.3-1.7 6.5-3.6 9.5-5.7 18.9-13.1 31-30.5 33.6-53.6 1.2-10.2 0.7-20.6 0.8-30.9 0-0.7-0.9-1.8-1.7-2.1-14.6-5.9-29.8-8.9-45.5-8.7-9.3 0.1-18.6 1.2-27.5 3.8-5.6 1.6-11.2 3.4-16.8 5.2zm73-16.8c-1.4-9.9-13.5-22.4-29.4-22.3-16.5 0.1-28.3 13.7-29.4 23.3 19.6-4.8 39.1-5.1 58.8-1z"/>
                <path id="&lt;Path&gt;" class="s14"
                      d="m136.9 146.6c-9.3-9.2-18.9-18.7-28.4-28.2 3.3-3.2 6.7-6.5 10-9.6 5.8 5.8 12 11.9 18 18 11.7-11.7 23.1-23.1 34.3-34.3 3.7 3.8 7 7.1 10.2 10.2-14.5 14.5-29.4 29.2-44.1 43.9z"/>
            </g>
        </g>
    </g>
</svg>